<svg id="Capa_1" enable-background="new 0 0 512 512" height="512" viewBox="0 0 512 512" width="512" xmlns="http://www.w3.org/2000/svg"><g><g><g><g><path d="m470.743 480.651h-429.486c-22.749 0-41.257-18.583-41.257-41.423v-268.87c0-22.842 18.508-41.425 41.257-41.425h20.065c5.522 0 10 4.478 10 10 0 5.523-4.478 10-10 10h-20.065c-11.721 0-21.257 9.611-21.257 21.425v268.869c0 11.813 9.536 21.424 21.257 21.424h429.486c11.721 0 21.257-9.61 21.257-21.424v-268.869c0-11.813-9.536-21.425-21.257-21.425h-25.462c-5.523 0-10-4.477-10-10 0-5.522 4.477-10 10-10h25.462c22.749 0 41.257 18.583 41.257 41.425v268.869c0 22.841-18.508 41.424-41.257 41.424z"/></g></g></g><g><path d="m343.354 254.468h-37.244v-37.497c0-13.467-10.922-24.423-24.347-24.423h-51.527c-13.425 0-24.347 10.956-24.347 24.423v37.497h-37.244c-13.425 0-24.347 10.956-24.347 24.423v51.804c0 13.468 10.922 24.424 24.347 24.424h37.244v37.496c0 13.468 10.922 24.424 24.347 24.424h51.527c13.425 0 24.347-10.956 24.347-24.424v-37.496h37.244c13.425 0 24.347-10.956 24.347-24.424v-51.804c0-13.467-10.922-24.423-24.347-24.423zm4.347 76.226c0 2.439-1.95 4.424-4.347 4.424h-47.244c-5.523 0-10 4.478-10 10v47.496c0 2.439-1.95 4.424-4.347 4.424h-51.527c-2.396 0-4.347-1.984-4.347-4.424v-47.496c0-5.522-4.478-10-10-10h-47.244c-2.396 0-4.347-1.984-4.347-4.424v-51.804c0-2.439 1.95-4.423 4.347-4.423h47.244c5.522 0 10-4.478 10-10v-47.497c0-2.439 1.95-4.423 4.347-4.423h51.527c2.396 0 4.347 1.984 4.347 4.423v47.497c0 5.522 4.477 10 10 10h47.244c2.397 0 4.347 1.984 4.347 4.423z"/><path d="m410.789 82.131c-7.506 0-14.538 2.057-20.575 5.625v-14.432c0-23.146-18.754-41.976-41.806-41.976h-184.816c-23.052 0-41.806 18.83-41.806 41.976v17.894c-6.981-5.676-15.875-9.088-25.554-9.088-22.374 0-40.576 18.202-40.576 40.576v54.595c0 22.373 18.202 40.575 40.576 40.575 22.373 0 40.575-18.202 40.575-40.575v-28.368h233.406v28.368c0 22.373 18.202 40.575 40.575 40.575 22.374 0 40.576-18.202 40.576-40.575v-54.595c.001-22.373-18.201-40.575-40.575-40.575zm-293.981 95.171c0 11.345-9.23 20.575-20.575 20.575-11.346 0-20.576-9.23-20.576-20.575v-54.595c0-11.346 9.23-20.576 20.576-20.576 11.345 0 20.575 9.23 20.575 20.576zm204.026-48.368h-129.668v-27.941h129.668zm20 0v-37.942c0-5.522-4.478-10-10-10h-149.668c-5.522 0-10 4.478-10 10v37.941h-29.38v-55.609c0-12.117 9.782-21.976 21.806-21.976h184.816c12.023 0 21.806 9.858 21.806 21.976v55.609h-29.38zm90.531 48.368c0 11.345-9.23 20.575-20.576 20.575-11.345 0-20.575-9.23-20.575-20.575v-54.595c0-11.346 9.23-20.576 20.575-20.576 11.346 0 20.576 9.23 20.576 20.576z"/></g></g></svg>